<svg width="130" height="25" viewBox="0 0 130 25" fill="none" xmlns="http://www.w3.org/2000/svg">
<circle cx="3.65217" cy="3.65217" r="3.65217" fill="#E95B3F"/>
<circle cx="24.348" cy="3.65217" r="3.65217" fill="#E95B3F"/>
<circle cx="14.0001" cy="3.65217" r="3.65217" fill="#E95B3F"/>
<path fill-rule="evenodd" clip-rule="evenodd" d="M0.507324 14.6087C0.507324 11.1909 3.27794 8.42032 6.69568 8.42029H6.69573H11.0579H17.2463H21.6088H21.9999L22.003 8.43264C25.2371 8.63596 27.7972 11.3234 27.7972 14.6087V24.1449C24.3794 24.1449 21.6088 21.3743 21.6088 17.9565V17.7535H21.6089V14.5579V14.3043H21.5943C21.4686 13.2191 20.5466 12.3768 19.4277 12.3768C18.3089 12.3768 17.3869 13.2191 17.2612 14.3043H17.2466V13.6957H17.2463V21.0507C17.2463 22.7596 15.8609 24.1449 14.1521 24.1449C12.4432 24.1449 11.0579 22.7596 11.0579 21.0507V14.3043H11.0441C10.9185 13.2192 9.99638 12.3768 8.87756 12.3768C7.75873 12.3768 6.83666 13.2192 6.71099 14.3043H6.69641V13.6957H6.69573V17.9565C6.69573 21.3743 3.92509 24.1449 0.507324 24.1449V14.6087Z" fill="#E95B3F"/>
<path d="M45.7188 7.77344H41.2852V20H38.834V7.77344H34.4395V5.78125H45.7188V7.77344ZM51.1387 20.1953C49.6348 20.1953 48.4141 19.7233 47.4766 18.7793C46.5456 17.8288 46.0801 16.5658 46.0801 14.9902V14.6973C46.0801 13.6426 46.2819 12.7018 46.6855 11.875C47.0957 11.0417 47.6686 10.3939 48.4043 9.93164C49.14 9.4694 49.9603 9.23828 50.8652 9.23828C52.304 9.23828 53.4141 9.69727 54.1953 10.6152C54.9831 11.5332 55.377 12.832 55.377 14.5117V15.4688H48.4727C48.5443 16.3411 48.834 17.0312 49.3418 17.5391C49.8561 18.0469 50.5007 18.3008 51.2754 18.3008C52.3626 18.3008 53.248 17.8613 53.9316 16.9824L55.2109 18.2031C54.7878 18.8346 54.2214 19.3262 53.5117 19.6777C52.8086 20.0228 52.0176 20.1953 51.1387 20.1953ZM50.8555 11.1426C50.2044 11.1426 49.6771 11.3704 49.2734 11.8262C48.8763 12.2819 48.6224 12.9167 48.5117 13.7305H53.0332V13.5547C52.9811 12.7604 52.7695 12.1615 52.3984 11.7578C52.0273 11.3477 51.513 11.1426 50.8555 11.1426ZM63.541 20C63.4368 19.7982 63.3457 19.4694 63.2676 19.0137C62.5124 19.8014 61.5879 20.1953 60.4941 20.1953C59.4329 20.1953 58.5671 19.8926 57.8965 19.2871C57.2259 18.6816 56.8906 17.9329 56.8906 17.041C56.8906 15.9147 57.3073 15.0521 58.1406 14.4531C58.9805 13.8477 60.1784 13.5449 61.7344 13.5449H63.1895V12.8516C63.1895 12.3047 63.0365 11.8685 62.7305 11.543C62.4245 11.2109 61.959 11.0449 61.334 11.0449C60.7936 11.0449 60.3509 11.1816 60.0059 11.4551C59.6608 11.722 59.4883 12.0638 59.4883 12.4805H57.1152C57.1152 11.901 57.3073 11.3607 57.6914 10.8594C58.0755 10.3516 58.5964 9.95443 59.2539 9.66797C59.918 9.38151 60.6569 9.23828 61.4707 9.23828C62.7077 9.23828 63.694 9.55078 64.4297 10.1758C65.1654 10.7943 65.543 11.6667 65.5625 12.793V17.5586C65.5625 18.5091 65.696 19.2676 65.9629 19.834V20H63.541ZM60.9336 18.291C61.4023 18.291 61.8418 18.1771 62.252 17.9492C62.6686 17.7214 62.9811 17.4154 63.1895 17.0312V15.0391H61.9102C61.0312 15.0391 60.3704 15.1921 59.9277 15.498C59.485 15.804 59.2637 16.237 59.2637 16.7969C59.2637 17.2526 59.4134 17.6172 59.7129 17.8906C60.0189 18.1576 60.4258 18.291 60.9336 18.291ZM70.2793 9.43359L70.3477 10.5371C71.0898 9.67122 72.1055 9.23828 73.3945 9.23828C74.8073 9.23828 75.7741 9.77865 76.2949 10.8594C77.0632 9.77865 78.1439 9.23828 79.5371 9.23828C80.7025 9.23828 81.5684 9.56055 82.1348 10.2051C82.7077 10.8496 83.0007 11.8001 83.0137 13.0566V20H80.6406V13.125C80.6406 12.4544 80.4941 11.9629 80.2012 11.6504C79.9082 11.3379 79.4232 11.1816 78.7461 11.1816C78.2057 11.1816 77.763 11.3281 77.418 11.6211C77.0794 11.9076 76.8418 12.2852 76.7051 12.7539L76.7148 20H74.3418V13.0469C74.3092 11.8034 73.6745 11.1816 72.4375 11.1816C71.487 11.1816 70.8132 11.569 70.416 12.3438V20H68.043V9.43359H70.2793Z" fill="#E95B3F"/>
<path d="M87.6816 9.43359L87.75 10.5371C88.4922 9.67122 89.5078 9.23828 90.7969 9.23828C92.2096 9.23828 93.1764 9.77865 93.6973 10.8594C94.4655 9.77865 95.5462 9.23828 96.9395 9.23828C98.1048 9.23828 98.9707 9.56055 99.5371 10.2051C100.11 10.8496 100.403 11.8001 100.416 13.0566V20H98.043V13.125C98.043 12.4544 97.8965 11.9629 97.6035 11.6504C97.3105 11.3379 96.8255 11.1816 96.1484 11.1816C95.6081 11.1816 95.1654 11.3281 94.8203 11.6211C94.4818 11.9076 94.2441 12.2852 94.1074 12.7539L94.1172 20H91.7441V13.0469C91.7116 11.8034 91.0768 11.1816 89.8398 11.1816C88.8893 11.1816 88.2155 11.569 87.8184 12.3438V20H85.4453V9.43359H87.6816ZM109.166 20C109.062 19.7982 108.971 19.4694 108.893 19.0137C108.137 19.8014 107.213 20.1953 106.119 20.1953C105.058 20.1953 104.192 19.8926 103.521 19.2871C102.851 18.6816 102.516 17.9329 102.516 17.041C102.516 15.9147 102.932 15.0521 103.766 14.4531C104.605 13.8477 105.803 13.5449 107.359 13.5449H108.814V12.8516C108.814 12.3047 108.661 11.8685 108.355 11.543C108.049 11.2109 107.584 11.0449 106.959 11.0449C106.419 11.0449 105.976 11.1816 105.631 11.4551C105.286 11.722 105.113 12.0638 105.113 12.4805H102.74C102.74 11.901 102.932 11.3607 103.316 10.8594C103.701 10.3516 104.221 9.95443 104.879 9.66797C105.543 9.38151 106.282 9.23828 107.096 9.23828C108.333 9.23828 109.319 9.55078 110.055 10.1758C110.79 10.7943 111.168 11.6667 111.188 12.793V17.5586C111.188 18.5091 111.321 19.2676 111.588 19.834V20H109.166ZM106.559 18.291C107.027 18.291 107.467 18.1771 107.877 17.9492C108.294 17.7214 108.606 17.4154 108.814 17.0312V15.0391H107.535C106.656 15.0391 105.995 15.1921 105.553 15.498C105.11 15.804 104.889 16.237 104.889 16.7969C104.889 17.2526 105.038 17.6172 105.338 17.8906C105.644 18.1576 106.051 18.291 106.559 18.291ZM116.646 6.86523V9.43359H118.512V11.1914H116.646V17.0898C116.646 17.4935 116.725 17.7865 116.881 17.9688C117.044 18.1445 117.33 18.2324 117.74 18.2324C118.014 18.2324 118.29 18.1999 118.57 18.1348V19.9707C118.03 20.1204 117.509 20.1953 117.008 20.1953C115.185 20.1953 114.273 19.1895 114.273 17.1777V11.1914H112.535V9.43359H114.273V6.86523H116.646ZM124.986 20.1953C123.482 20.1953 122.262 19.7233 121.324 18.7793C120.393 17.8288 119.928 16.5658 119.928 14.9902V14.6973C119.928 13.6426 120.13 12.7018 120.533 11.875C120.943 11.0417 121.516 10.3939 122.252 9.93164C122.988 9.4694 123.808 9.23828 124.713 9.23828C126.152 9.23828 127.262 9.69727 128.043 10.6152C128.831 11.5332 129.225 12.832 129.225 14.5117V15.4688H122.32C122.392 16.3411 122.682 17.0312 123.189 17.5391C123.704 18.0469 124.348 18.3008 125.123 18.3008C126.21 18.3008 127.096 17.8613 127.779 16.9824L129.059 18.2031C128.635 18.8346 128.069 19.3262 127.359 19.6777C126.656 20.0228 125.865 20.1953 124.986 20.1953ZM124.703 11.1426C124.052 11.1426 123.525 11.3704 123.121 11.8262C122.724 12.2819 122.47 12.9167 122.359 13.7305H126.881V13.5547C126.829 12.7604 126.617 12.1615 126.246 11.7578C125.875 11.3477 125.361 11.1426 124.703 11.1426Z" fill="black"/>
</svg>
